<?xml version="1.0" encoding="UTF-8" standalone="no"?>
<svg
   xmlns:dc="http://purl.org/dc/elements/1.1/"
   xmlns:cc="http://creativecommons.org/ns#"
   xmlns:rdf="http://www.w3.org/1999/02/22-rdf-syntax-ns#"
   xmlns:svg="http://www.w3.org/2000/svg"
   xmlns="http://www.w3.org/2000/svg"
   xmlns:sodipodi="http://sodipodi.sourceforge.net/DTD/sodipodi-0.dtd"
   xmlns:inkscape="http://www.inkscape.org/namespaces/inkscape"
   viewBox="0 0 36 36"
   version="1.1"
   id="svg883"
   sodipodi:docname="tree.svg"
   inkscape:version="0.92.3 (2405546, 2018-03-11)">
  <metadata
     id="metadata889">
    <rdf:RDF>
      <cc:Work
         rdf:about="">
        <dc:format>image/svg+xml</dc:format>
        <dc:type
           rdf:resource="http://purl.org/dc/dcmitype/StillImage" />
      </cc:Work>
    </rdf:RDF>
  </metadata>
  <defs
     id="defs887" />
  <sodipodi:namedview
     pagecolor="#ffffff"
     bordercolor="#666666"
     borderopacity="1"
     objecttolerance="10"
     gridtolerance="10"
     guidetolerance="10"
     inkscape:pageopacity="0"
     inkscape:pageshadow="2"
     inkscape:window-width="1596"
     inkscape:window-height="853"
     id="namedview885"
     showgrid="false"
     inkscape:zoom="15.361111"
     inkscape:cx="8.7265093"
     inkscape:cy="20.848712"
     inkscape:window-x="0"
     inkscape:window-y="22"
     inkscape:window-maximized="0"
     inkscape:current-layer="svg883" />
  <path
     fill="#269"
     d="M0 29c0 2.209 1.791 4 4 4h24c2.209 0 4-1.791 4-4V12c0-2.209-1.791-4-4-4h-9c-3.562 0-3-5-8.438-5H4C1.791 3 0 4.791 0 7v22z"
     id="path879"
     style="fill:#8d5272;fill-opacity:1" />
  <path
     fill="#55ACEE"
     d="M30 10h-6.562C18 10 18.562 15 15 15H6c-2.209 0-4 1.791-4 4v10c0 .553-.448 1-1 1s-1-.447-1-1c0 2.209 1.791 4 4 4h26c2.209 0 4-1.791 4-4V14c0-2.209-1.791-4-4-4z"
     id="path881"
     style="fill:#cc78a5;fill-opacity:1" />
</svg>
